<?xml version="1.0" encoding="utf-8"?>
<!-- Generator: Adobe Illustrator 18.0.0, SVG Export Plug-In . SVG Version: 6.00 Build 0)  -->
<!DOCTYPE svg PUBLIC "-//W3C//DTD SVG 1.1//EN" "http://www.w3.org/Graphics/SVG/1.1/DTD/svg11.dtd">
<svg version="1.1" id="Layer_1" xmlns="http://www.w3.org/2000/svg" xmlns:xlink="http://www.w3.org/1999/xlink" x="0px" y="0px"
	 viewBox="0 0 1000 1000" enable-background="new 0 0 1000 1000" xml:space="preserve">
<g id="ML6XTN.tif">
	<g>
		<path fill="#FFFFFF" d="M109,512.3c0-6.2,0-12.3,0-18.5c4.1-6.5,7.7-13.3,12.3-19.4c55.5-74,117.6-142.5,196.4-191.6
			c118.1-73.5,242.2-76.4,362-6.2c90.4,53,160.9,129.9,219.3,217.2c0,6.2,0,12.3,0,18.5c-3.3,5.1-6.3,10.5-9.9,15.4
			c-53,72-113.7,136.6-186.7,188.8c-110.6,79.1-273.6,82.8-386.4,6.8C232.9,667.4,165.3,595.2,109,512.3z M641.5,501.2
			c-1.7-77.9-62.8-136.5-140.7-134.8c-76.6,1.6-136.4,63.8-134.3,139.7c2.2,76.4,64.6,136.5,139.9,134.9
			C582.5,639.4,643.1,576.6,641.5,501.2z"/>
		<path fill="#FFFFFF" d="M504.9,581.3c-43.9,0.2-79.3-33.9-79.9-77c-0.6-43.4,35.3-79.6,79.1-79.7c43.5-0.1,78.3,34.4,78.8,78.2
			C583.4,546,548.6,581.1,504.9,581.3z"/>
	</g>
</g>
</svg>
