<?xml version="1.0" encoding="utf-8"?>
<!-- Generator: Adobe Illustrator 18.0.0, SVG Export Plug-In . SVG Version: 6.00 Build 0)  -->
<!DOCTYPE svg PUBLIC "-//W3C//DTD SVG 1.1//EN" "http://www.w3.org/Graphics/SVG/1.1/DTD/svg11.dtd">
<svg version="1.1" id="Layer_1" xmlns="http://www.w3.org/2000/svg" xmlns:xlink="http://www.w3.org/1999/xlink" x="0px" y="0px"
	 viewBox="0 0 575.8 1000" enable-background="new 0 0 575.8 1000" xml:space="preserve">
<g>
	<path fill="#FFFFFF" d="M290.8,695.4c-36.3,0-72.5-0.1-108.8,0.1c-8.5,0-13.5-1.9-14.2-11.8c-5-74.4-22.6-146.5-38.7-219.1
		c-27.7-124.8-5.6-240.6,75.2-342.1C227,94,256.4,75,295.3,75.9c26,0.6,47.1,11.7,66.1,28.2c19.7,17.1,35,37.8,48.8,59.9
		c58.3,93.4,70.7,194.1,49.4,300.7c-9.6,48-27.8,93.8-35.5,142.3c-3.9,24.6-8.6,49.1-9.7,74c-0.5,11.3-5.2,14.7-16,14.5
		C362.5,695.1,326.7,695.4,290.8,695.4z"/>
	<path fill="#FFFFFF" d="M293.8,751.2c34,0,68,0.3,102-0.2c11.5-0.2,16.3,3.3,16,15.5c-0.7,31.3,0.2,62.6-0.5,93.8
		c-1.2,51.7-30.1,86.5-80.9,96c-34.8,6.5-69.6,5.6-102.4-10.1c-34.2-16.4-52.2-44.8-54.1-81.9c-1.8-33.5-0.2-67.1-0.6-100.6
		c-0.1-10.9,5.6-12.7,14.6-12.7C223.1,751.3,258.5,751.2,293.8,751.2z"/>
</g>
</svg>
