<?xml version="1.0" encoding="utf-8"?>
<!-- Generator: Adobe Illustrator 18.0.0, SVG Export Plug-In . SVG Version: 6.00 Build 0)  -->
<!DOCTYPE svg PUBLIC "-//W3C//DTD SVG 1.1//EN" "http://www.w3.org/Graphics/SVG/1.1/DTD/svg11.dtd">
<svg version="1.1" id="Layer_1" xmlns="http://www.w3.org/2000/svg" xmlns:xlink="http://www.w3.org/1999/xlink" x="0px" y="0px"
	 viewBox="0 0 1000 1000" enable-background="new 0 0 1000 1000" xml:space="preserve">
<g>
	<g>
		<linearGradient id="SVGID_1_" gradientUnits="userSpaceOnUse" x1="6.9187" y1="505.7089" x2="993.072" y2="505.7089">
			<stop  offset="0" style="stop-color:#828282"/>
			<stop  offset="1" style="stop-color:#CBCBCB"/>
		</linearGradient>
		<path fill="url(#SVGID_1_)" d="M500,276.9c26.4-42.9,53.1-84.6,87.4-121.6c34.2-36.9,74.7-68.4,101.5-111.6
			c-0.5,49.8-14.2,93.3-30.8,139.6c-16.2,45.4-24.1,88-27.7,136c22.4-9.2,44.7-18.4,67.1-27.6c22-9,45-21.5,68.4-26.4
			c50.8-10.5,108.2,13.9,157,25.3c-17.1,12.9-36.5,9.7-55.3,16.8c-17.9,6.7-35.5,14.5-52.1,23.9c-43.2,24.5-72.8,61.7-104.5,98.9
			c100.2,24.3,274.6,28.7,282.1,163.7c-5.4-60.5-74.9-60.9-122.2-58.1c-56.1,3.3-111,16-165.6,28.2c29.8,39.4,61.5,69.5,100.2,100.2
			c21.7,17.3,43.5,34.4,64.6,52.5c29,24.9,49.4,59.4,67.3,92.7c-47.2-48-107.2-83.8-171.4-104c-46.8-14.8-95.2-24.2-142.6-36.8
			c9.5,49,31.1,92.5,35.6,143.1c4.6,51.8,0.8,103.8,2.8,155.7c-26.8-41.7-50-85.5-77.5-126.8c-27.2-40.6-58.4-78.4-84.1-120
			c-26.9,43.6-61.1,82.1-87.9,125.8c-24,39.1-41.4,81.7-64.5,121.3c2-48.6-8.7-96.3-8.7-144.8c0-21.6,2-43.2,8.6-63.8
			c8.8-27.3,23.6-50.4,29.8-78.9c-51.7,20.2-104,35.3-157.9,48.3C164,741.7,108.5,758.6,61,790.8c33.4-53.7,83.3-78.9,134.2-112.9
			c20.6-13.8,40.9-28.6,58.2-46.4c17.6-18.1,29-40.6,42.2-61.9C247.2,557.8,5.2,480.4,6.9,582.8c3.9-68.4,55.6-95.5,115.2-113.6
			c54.7-16.6,111.4-25.5,166.9-39c-31.5-37.1-60.2-77.6-109.8-90.5c-17.3-4.5-37.3-6.6-55.2-5.4c-19.4,1.3-28.9,5-46.6-6.2
			c26.7-9.9,51.5-23.1,76.9-35.9c23.8-12,52.2-27.8,79.8-25.5c20,1.7,40,13.4,58.3,20.9c25.7,10.6,51.4,21.1,77.2,31.7
			c-4-52.2-12.9-98.1-33.3-146.6c-17.8-42.2-37.1-82.7-48.7-127.2c40.6,37.4,86.5,68.6,124.8,108.5
			C447.8,190.8,473.4,233.8,500,276.9z"/>
	</g>
	<g>
		
			<linearGradient id="SVGID_2_" gradientUnits="userSpaceOnUse" x1="546.1438" y1="955.5564" x2="451.7605" y2="83.3242" gradientTransform="matrix(0.9542 0.2992 -0.2992 0.9542 211.6646 -156.8085)">
			<stop  offset="0" style="stop-color:#828282"/>
			<stop  offset="1" style="stop-color:#CBCBCB"/>
		</linearGradient>
		<path fill="url(#SVGID_2_)" d="M565.9,325c33.2-26.1,65.7-52.8,103.4-72.2c15.8-8.2,33.1-16.7,50.7-20.5c13.8-3,26.9-2.4,39.5-10
			c-9.4,25.1-34,40.2-46.6,63.7c-17.8,33.3-31.2,69.4-46.4,103.9c95.8-7.5,249.8-3.7,263.1,122c-14.7-118.2-163.8-50.1-223.7-15.8
			c43.4,24,91.8,38,133.6,65c55,35.6,85,87,90.2,152.2c-14.7-119.2-179-116.4-270-117.5c15.9,37.8,39.5,60.9,67.9,89
			c35.8,35.4,55.3,83.2,70.8,130.3c-34.5-33.4-67.6-62.8-109.2-87c-39.6-23-82.4-39.4-122-62.2c-12.4,80.5-35.8,156.1-56.4,234.8
			c-21.5-76.9-48.5-150.3-61.7-229.2c-40.7,28-86.9,46.7-128.7,73c-34.5,21.7-59.7,47.9-87.6,77.1c6.2-40.9,13.7-83.6,45.7-112.9
			c14.8-13.5,32.3-23,45.5-38.3c15.4-17.9,24.4-39.4,32.3-61.3c-52.1,5.5-103.8,4.4-155.9,8.1C161.6,620,90.2,625.9,83,675.8
			c17.8-103,146-130.6,223.5-176c-42.1-23-86.9-48.4-136.8-44.5c-41.3,3.2-86.5,32-87,77.8c0.6-54.7,62.3-95.1,105.8-116.1
			c51.8-25.1,98.9-27.3,155-24c-16.8-36-30.4-80.6-54.1-112.6c-14.4-19.5-37.7-28.7-50.5-49.8c15.5,6.5,29.4,3.1,45.3,4.8
			c16.2,1.8,33,10,47.5,16.9c40.5,19.2,75.3,47.1,110.9,73.9c19.7-77.1,37.7-154.2,59-231C523.6,171.6,544.5,248.3,565.9,325z"/>
	</g>
</g>
</svg>
