<?xml version="1.0" encoding="utf-8"?>
<!-- Generator: Adobe Illustrator 18.0.0, SVG Export Plug-In . SVG Version: 6.00 Build 0)  -->
<!DOCTYPE svg PUBLIC "-//W3C//DTD SVG 1.1//EN" "http://www.w3.org/Graphics/SVG/1.1/DTD/svg11.dtd">
<svg version="1.1" id="Layer_1" xmlns="http://www.w3.org/2000/svg" xmlns:xlink="http://www.w3.org/1999/xlink" x="0px" y="0px"
	 viewBox="0 0 1000 1000" enable-background="new 0 0 1000 1000" xml:space="preserve">
<g>
	
		<linearGradient id="SVGID_1_" gradientUnits="userSpaceOnUse" x1="734.9142" y1="672.9611" x2="902.674" y2="505.2013" gradientTransform="matrix(0.7071 0.7071 -0.7071 0.7071 565.6913 -317.077)">
		<stop  offset="0" style="stop-color:#FFFFFF"/>
		<stop  offset="1" style="stop-color:#EDEDED"/>
	</linearGradient>
	<path fill="url(#SVGID_1_)" d="M828.6,399.9c17.4,17.4,29.4,40.6,29.4,67v395.7c0,52.8-43.4,94.4-96.2,94.4h-56.5
		c-52.8,0-98.3-41.6-98.3-94.4V621"/>
	
		<linearGradient id="SVGID_2_" gradientUnits="userSpaceOnUse" x1="603.6898" y1="698.4762" x2="434.6519" y2="529.4384" gradientTransform="matrix(0.7071 0.7071 -0.7071 0.7071 565.6913 -317.077)">
		<stop  offset="0" style="stop-color:#FFFFFF"/>
		<stop  offset="1" style="stop-color:#EDEDED"/>
	</linearGradient>
	<path fill="url(#SVGID_2_)" d="M612.1,614.7l-266.7,0.5c-9.4,0-44.1,0-53.2,0l-56.4,0.1c-28,0-53.2-12.1-70.8-31.3l223.4-216.9
		l275.8,0c7.7,0,37.2,0,44.9,0l56-0.5c26.4,0,52.2,12.6,67.3,27.7L612.1,614.7z"/>
	
		<linearGradient id="SVGID_3_" gradientUnits="userSpaceOnUse" x1="157.5769" y1="730.2095" x2="307.4847" y2="580.3017" gradientTransform="matrix(0.7071 0.7071 -0.7071 0.7071 565.6913 -317.077)">
		<stop  offset="0" style="stop-color:#FFFFFF"/>
		<stop  offset="1" style="stop-color:#EDEDED"/>
	</linearGradient>
	<path fill="url(#SVGID_3_)" d="M383,370V127.5c0-52.8-41.6-93.5-94.4-93.5h-56.5c-52.8,0-94.1,40.7-94.1,93.5v395.7
		c0,24.8,7.8,47.1,23.4,64.1"/>
	
		<linearGradient id="SVGID_4_" gradientUnits="userSpaceOnUse" x1="357.8002" y1="1021.191" x2="357.8002" y2="461.0762" gradientTransform="matrix(0.7071 0.7071 -0.7071 0.7071 565.6913 -317.077)">
		<stop  offset="0" style="stop-color:#FFFFFF"/>
		<stop  offset="1" style="stop-color:#EDEDED"/>
	</linearGradient>
	<path fill="url(#SVGID_4_)" d="M476.3,355.7L182.4,649.6c-1.9,1.9-5.1,1.9-7.1,0L105,579.2c-1.9-1.9-1.9-5.1,0-7.1l293.9-293.9
		c1.9-1.9,5.1-1.9,7.1,0l70.4,70.4C478.3,350.6,478.3,353.8,476.3,355.7z"/>
	
		<linearGradient id="SVGID_5_" gradientUnits="userSpaceOnUse" x1="-109.9883" y1="651.5615" x2="242.02" y2="299.5532" gradientTransform="matrix(0.7071 0.7071 -0.7071 0.7071 565.6913 -317.077)">
		<stop  offset="0" style="stop-color:#FFFFFF"/>
		<stop  offset="1" style="stop-color:#EDEDED"/>
	</linearGradient>
	<path fill="url(#SVGID_5_)" d="M404.3,120.6H116.4c-2.8,0-5-2.2-5-5V16.1c0-2.8,2.2-5,5-5h287.9c2.8,0,5,2.2,5,5v99.5
		C409.3,118.4,407,120.6,404.3,120.6z"/>
	
		<linearGradient id="SVGID_6_" gradientUnits="userSpaceOnUse" x1="845.9395" y1="924.8065" x2="1195.5355" y2="575.2106" gradientTransform="matrix(0.7071 0.7071 -0.7071 0.7071 565.6913 -317.077)">
		<stop  offset="0" style="stop-color:#FFFFFF"/>
		<stop  offset="1" style="stop-color:#EDEDED"/>
	</linearGradient>
	<path fill="url(#SVGID_6_)" d="M877.5,989.8H589.6c-2.8,0-5-2.2-5-5v-99.5c0-2.8,2.2-5,5-5h287.9c2.8,0,5,2.2,5,5v99.5
		C882.5,987.5,880.2,989.8,877.5,989.8z"/>
	
		<linearGradient id="SVGID_7_" gradientUnits="userSpaceOnUse" x1="692.8361" y1="765.1849" x2="692.8361" y2="167.8375" gradientTransform="matrix(0.7071 0.7071 -0.7071 0.7071 565.6913 -317.077)">
		<stop  offset="0" style="stop-color:#FFFFFF"/>
		<stop  offset="1" style="stop-color:#EDEDED"/>
	</linearGradient>
	<path fill="url(#SVGID_7_)" d="M896,409.9L602.1,703.8c-1.9,1.9-5.1,1.9-7.1,0l-70.4-70.4c-1.9-1.9-1.9-5.1,0-7.1l293.9-293.9
		c1.9-1.9,5.1-1.9,7.1,0l70.4,70.4C897.9,404.7,897.9,407.9,896,409.9z"/>
</g>
</svg>
