<?xml version="1.0" encoding="utf-8"?>
<!-- Generator: Adobe Illustrator 18.0.0, SVG Export Plug-In . SVG Version: 6.00 Build 0)  -->
<!DOCTYPE svg PUBLIC "-//W3C//DTD SVG 1.1//EN" "http://www.w3.org/Graphics/SVG/1.1/DTD/svg11.dtd">
<svg version="1.1" id="Layer_1" xmlns="http://www.w3.org/2000/svg" xmlns:xlink="http://www.w3.org/1999/xlink" x="0px" y="0px"
	 viewBox="0 0 1000 1000" enable-background="new 0 0 1000 1000" xml:space="preserve">
<g>
	<linearGradient id="SVGID_1_" gradientUnits="userSpaceOnUse" x1="99.958" y1="500" x2="900.042" y2="500">
		<stop  offset="0" style="stop-color:#E54AC7"/>
		<stop  offset="1" style="stop-color:#E583C7"/>
	</linearGradient>
	<path fill="url(#SVGID_1_)" d="M560.6,968.1c-33.3,41.6-87.8,41.6-121.2,0L124.9,575.6c-33.3-41.6-33.3-109.6,0-151.2L439.4,31.9
		c33.3-41.6,87.8-41.6,121.2,0l314.5,392.5c33.3,41.6,33.3,109.6,0,151.2L560.6,968.1z"/>
	<linearGradient id="SVGID_2_" gradientUnits="userSpaceOnUse" x1="99.958" y1="500" x2="900.042" y2="500">
		<stop  offset="0" style="stop-color:#E54AC7"/>
		<stop  offset="1" style="stop-color:#E583C7"/>
	</linearGradient>
	<path fill="url(#SVGID_2_)" d="M560.6,968.1c-33.3,41.6-87.8,41.6-121.2,0L124.9,575.6c-33.3-41.6-33.3-109.6,0-151.2L439.4,31.9
		c33.3-41.6,87.8-41.6,121.2,0l314.5,392.5c33.3,41.6,33.3,109.6,0,151.2L560.6,968.1z"/>
</g>
</svg>
