<?xml version="1.0" encoding="utf-8"?>
<!-- Generator: Adobe Illustrator 18.0.0, SVG Export Plug-In . SVG Version: 6.00 Build 0)  -->
<!DOCTYPE svg PUBLIC "-//W3C//DTD SVG 1.1//EN" "http://www.w3.org/Graphics/SVG/1.1/DTD/svg11.dtd">
<svg version="1.1" id="Layer_1" xmlns="http://www.w3.org/2000/svg" xmlns:xlink="http://www.w3.org/1999/xlink" x="0px" y="0px"
	 viewBox="0 0 522.5 80.3" enable-background="new 0 0 522.5 80.3" xml:space="preserve">
<linearGradient id="SVGID_1_" gradientUnits="userSpaceOnUse" x1="23.7308" y1="39.8846" x2="499.8162" y2="39.8846">
	<stop  offset="0" style="stop-color:#FF00CE"/>
	<stop  offset="1" style="stop-color:#3FA6FF"/>
</linearGradient>
<path fill="url(#SVGID_1_)" d="M62.2,19.2h-37c-0.8,0-1.5-0.7-1.5-1.5s0.7-1.5,1.5-1.5h37c0.8,0,1.5,0.7,1.5,1.5
	S63.1,19.2,62.2,19.2z M41.2,18.2v45c0,0.8,0.7,1.5,1.5,1.5s1.5-0.7,1.5-1.5v-45 M42.2,18.2 M45.2,18.2 M114.2,63.2v-47
	c0-0.8-0.7-1.5-1.5-1.5s-1.5,0.7-1.5,1.5v47c0,0.8,0.7,1.5,1.5,1.5S114.2,64,114.2,63.2z M91.9,64.4c0.7-0.4,0.9-1.4,0.5-2.1
	L80.8,43.2C87.5,42,92.6,36.1,92.6,29c0-7.9-6.4-14.4-14.4-14.4c-0.8,0-1.5,0.7-1.5,1.5c0,0.8,0.7,1.5,1.5,1.5
	c6.3,0,11.4,5.1,11.4,11.4s-5.1,11.4-11.4,11.4c-0.5,0-1,0.3-1.3,0.8c-0.3,0.5-0.3,1.1,0,1.5l12.9,21.2c0.3,0.5,0.8,0.7,1.3,0.7
	C91.4,64.7,91.6,64.6,91.9,64.4z M394.2,63.2v-47c0-0.8-0.7-1.5-1.5-1.5s-1.5,0.7-1.5,1.5v47c0,0.8,0.7,1.5,1.5,1.5
	S394.2,64,394.2,63.2z M275.9,64.4c0.7-0.4,0.9-1.4,0.5-2.1l-11.6-19.2c6.7-1.2,11.8-7.1,11.8-14.2c0-7.9-6.4-14.4-14.4-14.4
	c-0.8,0-1.5,0.7-1.5,1.5c0,0.8,0.7,1.5,1.5,1.5c6.3,0,11.4,5.1,11.4,11.4s-5.1,11.4-11.4,11.4c-0.5,0-1,0.3-1.3,0.8
	c-0.3,0.5-0.3,1.1,0,1.5l12.9,21.2c0.3,0.5,0.8,0.7,1.3,0.7C275.4,64.7,275.6,64.6,275.9,64.4z M418.6,29c0-7.9-6.4-14.4-14.4-14.4
	c-0.8,0-1.5,0.7-1.5,1.5c0,0.8,0.7,1.5,1.5,1.5c6.3,0,11.4,5.1,11.4,11.4s-5.1,11.4-11.4,11.4c-0.8,0-1.5,0.7-1.5,1.5
	s0.7,1.5,1.5,1.5C412.2,43.4,418.6,37,418.6,29z M438.2,63.2v-47c0-0.8-0.7-1.5-1.5-1.5s-1.5,0.7-1.5,1.5v47c0,0.8,0.7,1.5,1.5,1.5
	S438.2,64,438.2,63.2z M462.6,29c0-7.9-6.4-14.4-14.4-14.4c-0.8,0-1.5,0.7-1.5,1.5c0,0.8,0.7,1.5,1.5,1.5c6.3,0,11.4,5.1,11.4,11.4
	s-5.1,11.4-11.4,11.4c-0.8,0-1.5,0.7-1.5,1.5s0.7,1.5,1.5,1.5C456.2,43.4,462.6,37,462.6,29z M179.3,38.7 M180.8,42
	c0-0.8-0.7-0.8-1.5-0.8h-12.5c-0.8,0-1.5,0.7-1.5,1.5s0.7,1.5,1.5,1.5h10.9c-0.8,10-10.3,18.5-21.8,18.5c-11.9,0-21.9-11-21.9-23.4
	c0-12.1,9.6-21.7,21.8-21.7c6.2,0,12.4,3.1,16.9,8.7c0.5,0.7,1.5,0.7,2.1,0.2c0.7-0.5,0.8-1.5,0.2-2.2c-5.1-6.3-12.1-9.9-19.3-9.9
	c-13.9,0-24.8,10.8-24.8,24.6c0,14.1,11.4,26.3,24.9,26.3C169.6,65.3,180.8,55.1,180.8,42z M242.7,42c0-0.8-0.7-0.8-1.5-0.8h-12.5
	c-0.8,0-1.5,0.7-1.5,1.5s0.7,1.5,1.5,1.5h10.9c-0.8,10-10.3,18.5-21.8,18.5c-11.9,0-21.9-11-21.9-23.4c0-12.1,9.6-21.7,21.8-21.7
	c6.2,0,12.4,3.1,16.9,8.7c0.5,0.7,1.5,0.7,2.1,0.2c0.7-0.5,0.8-1.5,0.2-2.2c-5.1-6.3-12.1-9.9-19.3-9.9c-13.9,0-24.8,10.8-24.8,24.6
	c0,14.1,11.4,26.3,24.9,26.3C231.6,65.3,242.7,55.1,242.7,42z M302.2,63.2v-47c0-0.8-0.7-1.5-1.5-1.5s-1.5,0.7-1.5,1.5v47
	c0,0.8,0.7,1.5,1.5,1.5S302.2,64,302.2,63.2z M329.2,63.2v-47c0-0.8-0.7-1.5-1.5-1.5s-1.5,0.7-1.5,1.5v28h-23
	c-0.8,0-1.5,0.7-1.5,1.5s0.7,1.5,1.5,1.5h23v16c0,0.8,0.7,1.5,1.5,1.5S329.2,64,329.2,63.2z M484.2,62.2V42.6l15.3-24.6
	c0.4-0.7,0.4-1.6-0.3-2.1c-0.7-0.4-1.5-0.2-1.9,0.5l-15.4,25c-0.1,0.2-0.7,0.5-0.7,0.8v20c0,0.8,0.7,1.5,1.5,1.5
	S484.2,63,484.2,62.2z M351.9,64.3l6.8-17.1h8.5c0.8,0,1.5-0.7,1.5-1.5s-0.7-1.5-1.5-1.5h-7.1l8.8-25.6c0.3-0.8-0.1-1.9-0.9-2.2
	c-0.8-0.3-1.6,0-1.9,0.8l-17,45.6c-0.3,0.8,0.1,1.6,0.9,1.9c0.2,0.1,0.3,0.3,0.5,0.3C351.1,65,351.7,64.9,351.9,64.3z"/>
</svg>
